<svg xmlns="http://www.w3.org/2000/svg" viewBox="0 633.3 1920 447"><g class="prefix__original-letters"><path fill="#ed687c" d="M91.5 887.9l65.6-55.8 65.6-55.8c2-1.7 3.2-4.1 3.4-6.6s-.5-5-2.3-7.1c-1.7-2-4.1-3.2-6.6-3.4s-5 .5-7.1 2.3l-103.4 88-103.4 88c-1.1.9-1.9 2.1-2.5 3.3-.6 1.3-.9 2.7-.9 4.1v116c0 2.7 1.1 5.1 2.8 6.9s4.2 2.8 6.9 2.8 5.1-1.1 6.9-2.8 2.8-4.2 2.8-6.9V949.5l28.6-24.4 28.6-24.4 71.5 83.2 71.5 83.2c1 1.1 2.1 2 3.4 2.5 1.3.6 2.6.9 4 .9 1.1 0 2.2-.2 3.3-.6s2.1-1 3-1.8c2-1.8 3.2-4.2 3.4-6.6s-.6-5-2.3-7.1l-71.4-83.2-71.4-83.3zM557.2 755.5c-5.9 0-10.7 4.8-10.7 10.7v172.4c0 62-50.4 112.4-112.4 112.4s-112.4-50.4-112.4-112.4V766.2c0-5.9-4.8-10.7-10.7-10.7-5.9 0-10.7 4.8-10.7 10.7v172.4c0 73.8 60 133.8 133.8 133.8s133.8-60 133.8-133.8V766.2c0-5.9-4.8-10.7-10.7-10.7zM866.8 767.1c-19.9-8.5-41.1-12.1-64-11.5-50.1 1.2-96.6 25.4-116.6 72.5V644.2c0-6.6-3.6-10.9-10.3-10.9-6.6 0-10.9 4.2-10.9 10.9v416.4c0 6.6 4.2 10.9 10.9 10.9 6.6 0 10.3-4.2 10.3-10.9v-59.8c9.1 24.2 24.2 40.5 44.1 53.8 38 22.3 86.4 27.8 132.3 9.1 65.2-26.6 97.8-86.4 96-157-1.8-61.1-34.4-117.2-91.8-139.6zm17.5 259.7c-21.1 16.3-47.1 25.4-74.3 27.2-21.1.6-41.1-4.2-61-13.3-39.9-19.3-60.4-55.6-62.8-99.7v-52.5c4.2-62.2 48.9-109.3 116.6-111.7 51.3-.6 103.3 26.6 123.8 76.7 6.6 15.7 10.3 35 10.9 52.5 1.8 46.5-13.9 89.4-53.2 120.8z" style="z-index:0"/><path fill="#474442" d="M1170 758.7c-50.1 0-96 31.4-109.3 77.3v-67c0-5.4-4.8-10.3-10.3-10.3-6.6 0-10.9 4.8-10.9 10.3v288.7c0 6.6 4.2 10.9 10.9 10.9 5.4 0 10.3-4.2 10.3-10.9V918.1c0-73.1 32-138.9 109.3-138.9 6.6 0 10.9-3.6 10.9-10.3-.1-6.6-4.3-10.2-10.9-10.2z" style="z-index:0"/><g class="prefix__logo-letter prefix__logo-letter--i" fill="#474442"><path d="M1241.8 768.6v33.8c0 13.3 22.3 13.3 22.3 0v-33.8c.1-13.3-22.3-13.3-22.3 0zM1242.4 842.8v219.6c0 14.5 21.1 14.5 21.1 0V842.2c.1-13.9-21.1-13.9-21.1.6z" style="z-index:0"/></g><path fill="#474442" d="M1602.7 1004.7c-44.1 30.6-80.7 45.4-111.9 45.4-.7 0-1.4.3-2 .4-36.6-1.7-72.6-17.2-96-46.1C1333 932 1365 804 1455 779.8c51.3-11.5 98.4-1.8 134.7 41.1 2.4 3 5.4 4.2 9.7 3.6 6.6-.6 9.7-6 9.1-11.5 0-1.8-.6-3.6-2.4-6-42.9-49.5-92.4-58.6-156.4-45.3-65.2 16.9-103.9 73.7-108.1 141.3-2.4 45.3 9.1 83.3 35 114.7 27.7 33.8 69.6 51.6 112.1 53.3.7.2 1.4.4 2.2.4 35.7 0 76.2-16.1 124-49.2 4.9-3.4 6.1-10 2.7-14.9-3.4-4.7-10.1-5.9-14.9-2.6zM1915.3 1053.5l-142.5-164.4 131-112.8c4.1-3.5 4.5-9.6 1-13.7s-9.6-4.5-13.7-1l-138.4 119.2-50.6 43.6V768.8c0-5.4-4.4-9.7-9.7-9.7s-9.7 4.4-9.7 9.7v176.7c0 3.8 2.2 7.3 5.7 8.8 1.3.6 2.7.9 4.1.9 2.3 0 4.6-.8 6.4-2.4l59.4-51.2 142.5 164.5c1.9 2.2 4.6 3.4 7.4 3.4 2.3 0 4.5-.8 6.4-2.4 3.8-3.4 4.2-9.5.7-13.6z" style="z-index:0"/></g></svg>